<svg width="426" height="90" viewBox="0 0 426 90" fill="none" xmlns="http://www.w3.org/2000/svg">
<path d="M45.128 89.28C36.2533 89.28 28.488 87.488 21.832 83.904C15.176 80.2347 10.0133 75.1147 6.344 68.544C2.67467 61.888 0.84 54.08 0.84 45.12C0.84 36.16 2.67467 28.3947 6.344 21.824C10.0133 15.168 15.176 10.048 21.832 6.464C28.488 2.79467 36.2533 0.959999 45.128 0.959999C53.2347 0.959999 60.36 2.32533 66.504 5.056C72.7333 7.70133 77.5547 11.5413 80.968 16.576C84.4667 21.5253 86.216 27.456 86.216 34.368V36.032H70.984V34.368C70.984 27.7973 68.8507 22.8053 64.584 19.392C60.4027 15.9787 53.96 14.272 45.256 14.272C38.5147 14.272 32.9253 15.3813 28.488 17.6C24.136 19.7333 20.8507 23.0613 18.632 27.584C16.4987 32.1067 15.432 37.952 15.432 45.12C15.432 52.2027 16.4987 58.048 18.632 62.656C20.8507 67.1787 24.136 70.5493 28.488 72.768C32.9253 74.9013 38.5147 75.968 45.256 75.968C53.96 75.968 60.4027 74.2613 64.584 70.848C68.8507 67.4347 70.984 62.4427 70.984 55.872V54.208H86.216V55.872C86.216 62.6987 84.4667 68.6293 80.968 73.664C77.5547 78.6987 72.7333 82.5813 66.504 85.312C60.36 87.9573 53.2347 89.28 45.128 89.28ZM128.912 89.28C121.915 89.28 115.728 87.9147 110.352 85.184C105.061 82.368 100.923 78.4853 97.936 73.536C95.0347 68.5013 93.584 62.7413 93.584 56.256C93.584 49.6 95.0347 43.7973 97.936 38.848C100.923 33.8987 105.061 30.0587 110.352 27.328C115.728 24.512 121.915 23.104 128.912 23.104C136.08 23.104 142.309 24.512 147.6 27.328C152.891 30.0587 156.987 33.8987 159.888 38.848C162.875 43.7973 164.368 49.6 164.368 56.256C164.368 62.7413 162.875 68.5013 159.888 73.536C156.987 78.4853 152.891 82.368 147.6 85.184C142.309 87.9147 136.08 89.28 128.912 89.28ZM128.912 76.992C136.677 76.992 142.267 75.2427 145.68 71.744C149.093 68.16 150.8 62.9973 150.8 56.256C150.8 49.5147 149.093 44.352 145.68 40.768C142.267 37.0987 136.677 35.264 128.912 35.264C121.232 35.264 115.685 37.0987 112.272 40.768C108.859 44.352 107.152 49.5147 107.152 56.256C107.152 62.9973 108.859 68.16 112.272 71.744C115.685 75.2427 121.232 76.992 128.912 76.992ZM193.088 88H179.264V27.84C179.264 22.464 180.416 17.8987 182.72 14.144C185.109 10.304 188.565 7.36 193.088 5.312C197.611 3.264 203.115 2.24 209.6 2.24H215.872V12.48H207.424C201.963 12.48 197.995 13.504 195.52 15.552C193.045 17.5147 192.235 21.2693 193.088 26.816V29.376V88ZM215.872 35.904H169.664V24.384H215.872V35.904ZM240.064 88H226.368V27.84C226.368 22.464 227.52 17.8987 229.824 14.144C232.128 10.304 235.541 7.36 240.064 5.312C244.672 3.264 250.176 2.24 256.576 2.24H262.848V12.48H254.4C248.939 12.48 244.971 13.504 242.496 15.552C240.021 17.5147 239.211 21.2693 240.064 26.816V29.376V88ZM262.848 35.904H216.64V24.384H262.848V35.904ZM302.525 89.28C295.613 89.28 289.554 88 284.349 85.44C279.144 82.88 275.09 79.1253 272.189 74.176C269.373 69.2267 267.965 63.2533 267.965 56.256C267.965 49.6 269.373 43.7973 272.189 38.848C275.09 33.8987 279.101 30.0587 284.221 27.328C289.341 24.512 295.357 23.104 302.269 23.104C308.84 23.104 314.6 24.2987 319.549 26.688C324.584 28.992 328.466 32.4053 331.197 36.928C334.013 41.3653 335.421 46.8267 335.421 53.312C335.421 54.4213 335.378 55.488 335.293 56.512C335.208 57.4507 335.08 58.3893 334.909 59.328H276.797V51.648H325.821L322.237 56.384C322.322 55.5307 322.365 54.72 322.365 53.952C322.365 53.0987 322.365 52.2453 322.365 51.392C322.365 45.504 320.658 41.152 317.245 38.336C313.917 35.4347 308.84 33.984 302.013 33.984C294.418 33.984 289 35.7333 285.757 39.232C282.514 42.7307 280.893 47.7653 280.893 54.336V57.664C280.893 64.32 282.514 69.3973 285.757 72.896C289 76.3947 294.461 78.144 302.141 78.144C308.797 78.144 313.576 77.12 316.477 75.072C319.464 72.9387 320.957 69.9947 320.957 66.24V65.216H334.781V66.368C334.781 70.8907 333.373 74.9013 330.557 78.4C327.826 81.8133 324.029 84.5013 319.165 86.464C314.386 88.3413 308.84 89.28 302.525 89.28ZM359.599 88H345.775V24.384H358.447V42.432L359.599 43.072V88ZM359.599 52.288H356.527V41.536H359.343C359.94 38.0373 361.135 34.9227 362.927 32.192C364.719 29.376 367.108 27.1573 370.095 25.536C373.167 23.9147 376.879 23.104 381.231 23.104C386.095 23.104 390.063 24.128 393.135 26.176C396.207 28.224 398.426 30.9547 399.791 34.368C401.242 37.7813 401.967 41.4933 401.967 45.504V53.824H388.271V48.192C388.271 43.584 387.247 40.2133 385.199 38.08C383.151 35.9467 379.738 34.88 374.959 34.88C369.498 34.88 365.572 36.3733 363.183 39.36C360.794 42.3467 359.599 46.656 359.599 52.288Z" fill="white"/>
<path d="M425.498 88H408.09V68.16H425.498V88Z" fill="#10B981"/>
</svg>
